name analog
datacolumns 19
datarows 23
range 0.214 0.225
endheader
time	ground_force_vx	ground_force_vy	ground_force_vz	ground_force_px	ground_force_py	ground_force_pz	l_ground_force_vx	l_ground_force_vy	l_ground_force_vz	l_ground_force_px	l_ground_force_py	l_ground_force_pz	ground_torque_x	ground_torque_y	ground_torque_z	l_ground_torque_x	l_ground_torque_y	l_ground_torque_z
0.214	-0.0	-0.0	-0.0	0.1410152614116668	56.05234909057617	-405.8249206542969	-2.451283693313598	-54.69818878173828	-414.9701232910156	-0.0	-0.0	-0.0	-0.0	-0.0	-0.0	100356.828125	4158.2568359375	-3306.52734375
0.2145	-0.0	-0.0	-0.0	0.1837258636951446	55.6226692199707	-407.0904846191406	-1.940841794013977	-54.77556610107422	-412.34808349609375	-0.0	-0.0	-0.0	-0.0	-0.0	-0.0	100383.3984375	3942.508544921875	-3051.85498046875
0.215	-0.0	-0.0	-0.0	1.180272340774536	55.59098052978516	-404.971923828125	-1.1693673133850098	-54.660423278808594	-412.47503662109375	-0.0	-0.0	-0.0	-0.0	-0.0	-0.0	100699.1484375	3868.899169921875	-2904.710205078125
0.2155	-0.0	-0.0	-0.0	1.401149034500122	55.596412658691406	-403.476806640625	-0.9704815149307252	-54.14119720458984	-414.3169555664063	-0.0	-0.0	-0.0	-0.0	-0.0	-0.0	100345.5703125	3548.906005859375	-2886.5
0.216	-0.0	-0.0	-0.0	1.0913461446762085	55.6121711730957	-407.2576904296875	-0.771904706954956	-53.87622833251953	-413.61956787109375	-0.0	-0.0	-0.0	-0.0	-0.0	-0.0	100838.7578125	2923.23876953125	-2683.9970703125
0.2165	-0.0	-0.0	-0.0	2.1152164936065674	55.94807815551758	-407.08831787109375	-0.109754167497158	-53.79314804077149	-413.1292114257813	-0.0	-0.0	-0.0	-0.0	-0.0	-0.0	100841.703125	2713.166259765625	-2646.804443359375
0.217	-0.0	-0.0	-0.0	1.993496775627136	55.56083297729492	-408.3370971679688	0.0052380640991032	-53.79312515258789	-414.7715148925781	-0.0	-0.0	-0.0	-0.0	-0.0	-0.0	100788.5625	2494.1376953125	-2386.782958984375
0.2175	-0.0	-0.0	-0.0	2.24557900428772	55.1870231628418	-409.5876770019531	0.5530624985694885	-53.78791046142578	-415.8191223144531	-0.0	-0.0	-0.0	-0.0	-0.0	-0.0	101379.1953125	2066.1123046875	-2131.586181640625
0.218	-0.0	-0.0	-0.0	2.176518201828003	55.270973205566406	-407.6498718261719	0.709686279296875	-53.6944465637207	-415.4700927734375	-0.0	-0.0	-0.0	-0.0	-0.0	-0.0	101505.765625	1893.3231201171875	-2196.1923828125
0.2185	-0.0	-0.0	-0.0	3.1122677326202397	55.38529968261719	-408.7291870117188	0.8716747760772705	-53.63175582885742	-415.5916442871094	-0.0	-0.0	-0.0	-0.0	-0.0	-0.0	101634.390625	1604.6925048828125	-1993.6124267578125
0.219	-0.0	-0.0	-0.0	3.013112545013428	55.53825759887695	-408.3751831054688	0.8768963813781738	-53.65193557739258	-416.2891845703125	-0.0	-0.0	-0.0	-0.0	-0.0	-0.0	101779.375	1547.011474609375	-1997.080078125
0.2195	-0.0	-0.0	-0.0	3.3107335567474365	55.45401382446289	-411.4349670410156	0.8034641742706299	-53.79800033569336	-418.0342102050781	-0.0	-0.0	-0.0	-0.0	-0.0	-0.0	102341.2421875	1368.90283203125	-2037.025634765625
0.22	-0.0	-0.0	-0.0	3.840996742248535	55.81045150756836	-409.0998229980469	0.6310548782348633	-54.23453140258789	-418.9224243164063	-0.0	-0.0	-0.0	-0.0	-0.0	-0.0	102201.828125	1301.440673828125	-2175.43115234375
0.2205	-0.0	-0.0	-0.0	3.573326349258423	55.473419189453125	-411.710693359375	0.1724205017089843	-54.38126373291016	-418.2442626953125	-0.0	-0.0	-0.0	-0.0	-0.0	-0.0	102454.828125	1495.5042724609375	-2086.828369140625
0.221	-0.0	-0.0	-0.0	3.211578369140625	55.21548843383789	-410.6519470214844	-0.1873464733362198	-54.57786178588867	-416.9846801757813	-0.0	-0.0	-0.0	-0.0	-0.0	-0.0	102153.2421875	1310.6630859375	-2090.478759765625
0.2215	-0.0	-0.0	-0.0	3.399700880050659	55.439109802246094	-410.3566589355469	-0.2611861526966095	-54.5926513671875	-417.2362060546875	-0.0	-0.0	-0.0	-0.0	-0.0	-0.0	102337.53125	925.4075317382812	-2088.881103515625
0.222	-0.0	-0.0	-0.0	3.717970132827759	55.800437927246094	-411.4165649414063	0.0690804868936538	-54.41593170166016	-418.9239807128906	-0.0	-0.0	-0.0	-0.0	-0.0	-0.0	102149.203125	989.2462768554688	-2090.25537109375
0.2225	-0.0	-0.0	-0.0	3.643311738967896	55.523475646972656	-411.0069580078125	-0.172552615404129	-54.81868362426758	-417.719482421875	-0.0	-0.0	-0.0	-0.0	-0.0	-0.0	102284.421875	1024.1220703125	-2085.64501953125
0.223	-0.0	-0.0	-0.0	3.1508734226226807	55.32150268554688	-411.2330932617188	0.0693229585886001	-54.7304916381836	-416.9442443847656	-0.0	-0.0	-0.0	-0.0	-0.0	-0.0	102355.8359375	606.89892578125	-2261.836181640625
0.2235	-0.0	-0.0	-0.0	3.479209899902344	55.16230773925781	-412.1796569824219	-0.7791637182235718	-54.82383346557617	-418.594970703125	-0.0	-0.0	-0.0	-0.0	-0.0	-0.0	102476.2578125	832.0899047851562	-2122.234130859375
0.224	-0.0	-0.0	-0.0	3.136387586593628	55.42510223388672	-411.8633117675781	-0.6906074285507202	-54.39665985107422	-417.9532775878906	-0.0	-0.0	-0.0	-0.0	-0.0	-0.0	102407.5546875	888.6390991210938	-2148.52392578125
0.2245	-0.0	-0.0	-0.0	3.549879312515259	55.68798065185547	-411.50970458984375	-0.6162434816360474	-54.05287170410156	-416.9615173339844	-0.0	-0.0	-0.0	-0.0	-0.0	-0.0	102311.1640625	604.691650390625	-2234.223876953125
0.225	-0.0	-0.0	-0.0	3.549970865249634	55.15328979492188	-413.3118286132813	-0.3689706921577453	-53.894981384277344	-417.9530334472656	-0.0	-0.0	-0.0	-0.0	-0.0	-0.0	102747.75	269.5383605957031	-2181.00146484375
